<?xml version="1.0" standalone="no"?><!DOCTYPE svg PUBLIC "-//W3C//DTD SVG 1.1//EN" "http://www.w3.org/Graphics/SVG/1.1/DTD/svg11.dtd"><svg t="1625465327631" class="icon" viewBox="0 0 1024 1024" version="1.1" xmlns="http://www.w3.org/2000/svg" p-id="1098" xmlns:xlink="http://www.w3.org/1999/xlink" width="200" height="200"><defs><style type="text/css"></style></defs><path d="M827.981424 612.591766l-68.972644-40.370576 20.360118-34.786029c3.326751-6.004137 6.483668-12.168117 9.400819-18.322107 19.520937-41.229737 29.411278-85.456546 29.411278-131.47161 0-169.654322-138.02521-307.679532-307.679532-307.679532-169.654322 0-307.679532 138.02521-307.679531 307.679532 0 47.973151 10.719532 93.918283 31.868878 136.546654 5.035083 10.150088 10.689561 20.180293 16.80359 29.820878l-67.484098 42.818185c-7.612566-11.988293-14.645698-24.486088-20.91957-37.123746-26.673951-53.767493-40.200741-111.660956-40.200742-172.071961 0-52.308917 10.24999-103.069346 30.480234-150.882654 19.520937-46.164917 47.463649-87.604449 83.048898-123.189698 35.585249-35.585249 77.034771-63.527961 123.189698-83.048897C407.432117 10.299941 458.192546 0.039961 510.501463 0.039961c52.308917 0 103.069346 10.24999 150.882654 30.480234 46.164917 19.520937 87.604449 47.463649 123.189698 83.048898 35.585249 35.585249 63.527961 77.034771 83.048897 123.189697 20.220254 47.813307 30.480234 98.573737 30.480234 150.882654 0 57.923434-12.477815 113.659005-37.093775 165.658224-3.70638 7.842341-7.742439 15.694673-11.988293 23.32722l-0.439571 0.779239-20.599883 35.185639z" p-id="1099"></path><path d="M510.501463 583.160507c-103.948488 0-188.515902-84.567415-188.515902-188.515902s84.567415-188.515902 188.515902-188.515903 188.515902 84.567415 188.515903 188.515903-84.567415 188.515902-188.515903 188.515902z m0-297.119844c-59.881522 0-108.593951 48.712429-108.593951 108.593952 0 59.881522 48.712429 108.593951 108.593951 108.593951 59.881522 0 108.593951-48.712429 108.593952-108.593951 0-59.881522-48.712429-108.593951-108.593952-108.593952z" p-id="1100"></path><path d="M511.920078 1024c-30.959766 0-59.541854-15.464898-76.515278-41.419551L182.801483 596.337639l66.884683-43.747278 252.603317 386.24281c2.977093 4.555551 7.302868 5.234888 9.630595 5.234888h0.029971c2.327727 0 6.663493-0.699317 9.630595-5.284839L766.251707 560.952195l67.084488 43.437581L588.665132 982.24078c-16.883512 26.074537-45.495571 41.689288-76.535259 41.75922h-0.209795z" p-id="1101"></path></svg>